<?xml version="1.0"?>
<svg version="1.1" xmlns="http://www.w3.org/2000/svg" width="400px" height="200px" style=""><path fill="#2d6fcc" d="M29.27,104.2l-0.805-3.36s-1.645-0.56-3.92-0.56c-3.675,0-5.775,2.73-5.775,8.575c0,5.67,2.275,8.05,5.95,8.05c3.5,0,6.65-2.45,6.65-2.45l1.925,3.15s-3.675,3.815-9.17,3.815c-7.105,0-11.2-4.27-11.2-12.39c0-8.225,4.62-13.125,11.795-13.125c4.235,0,8.155,1.645,8.155,1.645l-0.175,6.65l-3.43,0z"/><path fill="#2cb1cb" d="M68.27,104.2l-0.805-3.36s-1.645-0.56-3.92-0.56c-3.675,0-5.775,2.73-5.775,8.575c0,5.67,2.275,8.05,5.95,8.05c3.5,0,6.65-2.45,6.65-2.45l1.925,3.15s-3.675,3.815-9.17,3.815c-7.105,0-11.2-4.27-11.2-12.39c0-8.225,4.62-13.125,11.795-13.125c4.235,0,8.155,1.645,8.155,1.645l-0.175,6.65l-3.43,0z M88.93785,121l-0.63-2.275s-2.695,2.625-5.67,2.625c-3.395,0-5.46-1.995-5.46-5.495c0-4.13,3.115-5.775,8.435-5.775l2.45,0l0-1.925c0-1.785-0.945-2.555-2.695-2.555c-1.785,0-3.08,0.525-3.08,0.525l-0.525,2.205l-3.15,0l-0.245-5.18s4.235-1.4,7.595-1.4c5.32,0,7.35,1.855,7.35,6.93l0,8.645l2.625,0.63l0,2.8z M88.06285,113.055l-1.995,0c-2.73,0-3.815,0.7-3.815,2.275c0,1.33,0.735,2.1,2.065,2.1c1.855,0,3.745-2.03,3.745-2.03l0-2.345z M107.8207,102.1l0.315,2.415s2.52-2.765,4.865-2.765c1.925,0,3.255,0.63,3.255,0.63l-0.28,6.72l-3.15,0l-0.525-2.975c-2.03,0-3.78,1.96-3.78,1.96l0,9.24l3.5,0.875l0,2.8l-11.55,0l0-2.8l2.8-0.875l0-11.375l-2.8-0.875l0-2.8z M137.16855,112.705l-11.62,0c0.21,2.8,1.82,4.445,4.235,4.445c2.905,0,5.88-1.645,5.88-1.645l1.505,2.905s-3.5,2.94-7.98,2.94c-6.02,0-9.1-3.5-9.1-9.45c0-6.125,3.465-10.15,9.345-10.15c5.215,0,7.945,3.22,7.945,8.225c0,1.33-0.21,2.625-0.21,2.73z M125.61855,109.45l6.335,0c0-1.995-0.84-3.5-2.87-3.5c-1.96,0-3.185,1.435-3.465,3.5z M159.3414,112.705l-11.62,0c0.21,2.8,1.82,4.445,4.235,4.445c2.905,0,5.88-1.645,5.88-1.645l1.505,2.905s-3.5,2.94-7.98,2.94c-6.02,0-9.1-3.5-9.1-9.45c0-6.125,3.465-10.15,9.345-10.15c5.215,0,7.945,3.22,7.945,8.225c0,1.33-0.21,2.625-0.21,2.73z M147.7914,109.45l6.335,0c0-1.995-0.84-3.5-2.87-3.5c-1.96,0-3.185,1.435-3.465,3.5z M171.78425,102.1l0.315,2.415s2.52-2.765,4.865-2.765c1.925,0,3.255,0.63,3.255,0.63l-0.28,6.72l-3.15,0l-0.525-2.975c-2.03,0-3.78,1.96-3.78,1.96l0,9.24l3.5,0.875l0,2.8l-11.55,0l0-2.8l2.8-0.875l0-11.375l-2.8-0.875l0-2.8z M201.0971,104.2l-0.805-3.36s-1.645-0.56-3.92-0.56c-3.675,0-5.775,2.73-5.775,8.575c0,5.67,2.275,8.05,5.95,8.05c3.5,0,6.65-2.45,6.65-2.45l1.925,3.15s-3.675,3.815-9.17,3.815c-7.105,0-11.2-4.27-11.2-12.39c0-8.225,4.62-13.125,11.795-13.125c4.235,0,8.155,1.645,8.155,1.645l-0.175,6.65l-3.43,0z M217.17995,102.1l0.315,2.415s2.52-2.765,4.865-2.765c1.925,0,3.255,0.63,3.255,0.63l-0.28,6.72l-3.15,0l-0.525-2.975c-2.03,0-3.78,1.96-3.78,1.96l0,9.24l3.5,0.875l0,2.8l-11.55,0l0-2.8l2.8-0.875l0-11.375l-2.8-0.875l0-2.8z M228.7478,105.075l0-2.8l8.05-0.175l0,12.075c0,1.925,0.56,2.8,2.135,2.8c2.275,0,3.955-1.89,3.955-1.89l0-9.135l-2.8-0.875l0-2.8l8.05-0.175l0,15.225l2.8,0.7l0,2.73l-7.385,0.245l-0.35-2.45s-2.8,2.8-6.125,2.8c-3.5,0-5.53-2.345-5.53-6.265l0-9.135z M257.46565,96.325c0-1.995,1.435-3.15,3.01-3.15c1.82,0,2.94,0.945,2.94,3.15c0,2.065-1.505,3.185-2.94,3.185c-1.89,0-3.01-1.12-3.01-3.185z M263.34565,117.325l2.45,0.875l0,2.8l-10.5,0l0-2.8l2.8-0.875l0-11.375l-2.8-0.875l0-2.8l8.05-0.175l0,15.225z M273.7585,114.875l0.28,2.275s1.225,0.35,2.94,0.35c1.925,0,2.87-0.595,2.87-1.715c0-2.87-9.345-1.82-9.345-8.05c0-4.375,3.5-5.985,7.21-5.985c3.15,0,6.51,1.05,6.51,1.05l-0.14,5.25l-2.975,0l-0.525-2.1s-1.015-0.35-2.415-0.35c-1.505,0-2.415,0.63-2.415,1.785c0,2.835,9.345,1.61,9.345,7.665c0,4.025-3.255,6.3-8.05,6.3c-3.325,0-6.44-0.77-6.44-0.77l0-5.705l3.15,0z M307.06135,112.705l-11.62,0c0.21,2.8,1.82,4.445,4.235,4.445c2.905,0,5.88-1.645,5.88-1.645l1.505,2.905s-3.5,2.94-7.98,2.94c-6.02,0-9.1-3.5-9.1-9.45c0-6.125,3.465-10.15,9.345-10.15c5.215,0,7.945,3.22,7.945,8.225c0,1.33-0.21,2.625-0.21,2.73z M295.51135,109.45l6.335,0c0-1.995-0.84-3.5-2.87-3.5c-1.96,0-3.185,1.435-3.465,3.5z"/></svg>
